<svg width="62" height="61" viewBox="0 0 62 61" fill="none" xmlns="http://www.w3.org/2000/svg">
<circle cx="22.1962" cy="34.1385" r="17.9208" fill="#FFEDDD"/>
<path d="M36.3893 24.2043C35.9179 23.9042 35.2752 24.033 34.9751 24.5472C34.0751 26.0041 33.561 28.0182 33.561 30.1182C33.561 32.2609 34.0751 34.2323 34.9751 35.6892C35.1895 35.9893 35.5323 36.1606 35.8752 36.1606C36.0465 36.1606 36.2608 36.1179 36.4324 35.9893C36.9038 35.6892 37.0751 35.0465 36.7753 34.5752C36.0895 33.461 35.6612 31.8325 35.6612 30.0755C35.6612 28.3615 36.0468 26.7329 36.7753 25.5758C37.032 25.1472 36.8608 24.5045 36.3894 24.2044L36.3893 24.2043Z" fill="#08B059"/>
<path d="M31.4188 24.2043C30.9474 23.9042 30.3047 24.033 30.0047 24.5472C29.1046 26.0041 28.5905 28.0182 28.5905 30.1182C28.5905 32.2609 29.1047 34.2323 30.0047 35.6892C30.219 35.9893 30.5619 36.1606 30.9047 36.1606C31.076 36.1606 31.2904 36.1179 31.4619 35.9893C31.9333 35.6892 32.1046 35.0465 31.8048 34.5752C31.1191 33.461 30.6907 31.8325 30.6907 30.0755C30.6907 28.3615 31.0763 26.7329 31.8048 25.5758C32.0619 25.1472 31.8903 24.5045 31.4189 24.2044L31.4188 24.2043Z" fill="#08B059"/>
<path d="M43.632 26.3899C43.632 27.3602 42.8452 28.1469 41.8749 28.1469C40.9046 28.1469 40.1179 27.3602 40.1179 26.3899C40.1179 25.4196 40.9046 24.6328 41.8749 24.6328C42.8452 24.6328 43.632 25.4196 43.632 26.3899Z" fill="#08B059"/>
<path d="M50.4879 32.0892L47.788 30.8466L50.6592 29.8181C51.1734 29.6468 51.4735 29.0469 51.3019 28.5324C51.0448 27.6754 50.6162 26.9469 50.102 26.304C48.388 24.2471 45.5596 21.5472 41.8742 19.8332C41.4028 16.962 38.9603 14.7336 35.9603 14.6478C32.0606 14.562 28.2039 15.2477 24.4757 16.6619C23.9615 16.8762 23.5329 17.3046 23.4043 17.8618C23.2758 18.419 23.3616 19.0189 23.7472 19.4473C24.2613 20.09 24.6042 20.6899 24.7327 21.2898C23.2758 22.2754 21.9044 23.4753 20.576 24.8466C18.7334 22.8752 15.905 20.6899 11.9196 19.7901C11.5768 19.7043 11.2339 19.7901 10.9768 20.0472C10.7198 20.3043 10.5912 20.6471 10.6767 20.99C11.3194 25.0182 13.0764 29.3892 13.6764 30.7605C13.0765 32.132 11.3194 36.5028 10.6767 40.5311C10.634 40.8739 10.7195 41.2168 10.9768 41.4738C11.2339 41.6882 11.5768 41.8167 11.9196 41.7309C16.0337 40.7881 18.9476 38.5169 20.7902 36.46C23.1042 38.817 25.547 40.6168 27.9894 41.7739C27.6893 42.5882 27.261 43.2308 27.0039 43.5737C26.661 44.0024 26.5752 44.6023 26.7896 45.1165C27.0039 45.6736 27.4322 46.0592 28.0322 46.145C28.8034 46.2736 29.5322 46.3593 30.1748 46.3593C33.946 46.3593 36.3027 44.3452 37.4171 43.1026C42.731 42.0312 47.1877 38.1746 50.016 35.0462C50.4016 34.6175 50.7444 34.1034 51.0015 33.5034C51.13 33.2464 51.13 32.9462 51.0443 32.6891C50.9591 32.389 50.745 32.1747 50.4877 32.0892L50.4879 32.0892ZM48.4741 33.6319C45.8173 36.5889 41.6174 40.2743 36.6894 41.0885C36.4324 41.1312 36.218 41.2598 36.0468 41.4314C35.2322 42.4597 32.961 44.6024 29.1043 44.1737C29.533 43.531 30.0044 42.5882 30.2614 41.3884C30.3899 40.8742 30.1329 40.4028 29.6615 40.1885C26.9189 39.0313 24.1336 36.9745 21.5194 34.1461C21.305 33.9317 21.0052 33.8032 20.7051 33.8032C20.4049 33.8032 20.1051 33.9745 19.9339 34.1888C18.5624 35.9028 16.2912 38.0455 13.0345 39.2027C13.9346 35.2174 15.7343 31.1891 15.7343 31.1462C15.8629 30.8892 15.8629 30.5463 15.7343 30.2892C15.7343 30.2465 13.9345 26.261 13.0345 22.2328C16.2057 23.3469 18.4339 25.404 19.7626 27.0323C19.9769 27.2466 20.234 27.4179 20.5338 27.4179C20.7909 27.3752 21.1337 27.2894 21.3481 27.0751C22.9336 25.2752 24.6049 23.7753 26.4046 22.6612C26.7047 22.4468 26.9188 22.104 26.876 21.7184C26.8333 20.6043 26.4046 19.49 25.5904 18.4186C28.9329 17.176 32.4039 16.5761 35.8751 16.6616C38.2321 16.7043 39.7318 18.633 39.8176 20.5182C39.8176 20.9038 40.0747 21.2894 40.4603 21.4183C44.0599 22.961 46.8025 25.6178 48.4739 27.5892C48.6024 27.7605 48.774 27.9748 48.8595 28.1464L45.6027 29.3896C45.0455 29.6039 44.7026 30.0753 44.6599 30.6753C44.6172 31.2752 44.9601 31.7894 45.4742 32.0468L48.5597 33.5037C48.5169 33.5037 48.5169 33.5892 48.4742 33.6322L48.4741 33.6319Z" fill="#2FA0FF"/>
</svg>
