<svg width="200" height="50" viewBox="0 0 200 50" fill="none" xmlns="http://www.w3.org/2000/svg">
<rect width="200" height="49.479" rx="8" fill="#1564C0"/>
<path d="M50.0048 25.5417C50.0172 24.575 50.272 23.6272 50.7455 22.7863C51.2189 21.9455 51.8958 21.2391 52.7129 20.7327C52.1938 19.9855 51.509 19.3705 50.7128 18.9367C49.9166 18.5029 49.031 18.2622 48.1264 18.2337C46.1966 18.0295 44.3258 19.3975 43.3424 19.3975C42.34 19.3975 40.826 18.2539 39.1956 18.2877C38.141 18.3221 37.1132 18.6312 36.2124 19.1849C35.3116 19.7385 34.5684 20.518 34.0554 21.4472C31.8329 25.3254 33.4907 31.0251 35.6196 34.16C36.6848 35.695 37.9297 37.4097 39.5586 37.3489C41.1526 37.2823 41.7479 36.3245 43.672 36.3245C45.5782 36.3245 46.1368 37.3489 47.7987 37.3103C49.5092 37.2823 50.5868 35.7684 51.6146 34.2188C52.38 33.125 52.9689 31.9162 53.3596 30.637C52.3659 30.2134 51.5178 29.5043 50.9213 28.5983C50.3247 27.6922 50.006 26.6292 50.0048 25.5417Z" fill="white"/>
<path d="M46.8656 16.1718C47.7982 15.0435 48.2577 13.5932 48.1464 12.1289C46.7216 12.2797 45.4055 12.966 44.4603 14.0511C43.9982 14.5812 43.6443 15.1979 43.4187 15.8659C43.1932 16.5339 43.1005 17.2402 43.146 17.9443C43.8587 17.9517 44.5637 17.7961 45.208 17.489C45.8523 17.182 46.4191 16.7316 46.8656 16.1718Z" fill="white"/>
<path d="M66.0107 10.3269C66.4412 10.2957 66.8733 10.3613 67.2757 10.5188C67.6781 10.6763 68.0407 10.9219 68.3375 11.2378C68.6344 11.5537 68.8579 11.9321 68.9921 12.3456C69.1262 12.7591 69.1677 13.1975 69.1134 13.6291C69.1134 15.7522 67.9748 16.9727 66.0107 16.9727H63.6289V10.3269H66.0107ZM64.6531 16.0328H65.8963C66.204 16.0513 66.5118 16.0005 66.7976 15.884C67.0833 15.7675 67.3396 15.5882 67.5479 15.3592C67.7562 15.1303 67.9112 14.8574 68.0017 14.5604C68.0922 14.2635 68.1158 13.9499 68.0709 13.6426C68.1125 13.3365 68.0865 13.0249 67.9947 12.7301C67.9028 12.4354 67.7474 12.1647 67.5396 11.9376C67.3317 11.7104 67.0766 11.5324 66.7925 11.4163C66.5084 11.3002 66.2024 11.2489 65.8963 11.266H64.6531V16.0328Z" fill="white"/>
<path d="M70.2709 14.4636C70.2396 14.134 70.277 13.8014 70.3807 13.4873C70.4844 13.1731 70.6521 12.8842 70.8731 12.6392C71.094 12.3942 71.3633 12.1985 71.6638 12.0645C71.9642 11.9305 72.2891 11.8613 72.6176 11.8613C72.9461 11.8613 73.271 11.9305 73.5714 12.0645C73.8718 12.1985 74.1411 12.3942 74.3621 12.6392C74.583 12.8842 74.7508 13.1731 74.8545 13.4873C74.9582 13.8014 74.9956 14.134 74.9643 14.4636C74.9962 14.7935 74.9592 15.1265 74.8558 15.4412C74.7523 15.7558 74.5847 16.0452 74.3637 16.2907C74.1427 16.5362 73.8732 16.7324 73.5725 16.8666C73.2717 17.0009 72.9465 17.0702 72.6176 17.0702C72.2887 17.0702 71.9634 17.0009 71.6627 16.8666C71.362 16.7324 71.0924 16.5362 70.8714 16.2907C70.6504 16.0452 70.4828 15.7558 70.3794 15.4412C70.276 15.1265 70.239 14.7935 70.2709 14.4636ZM73.9541 14.4636C73.9541 13.3764 73.4696 12.7407 72.6192 12.7407C71.7656 12.7407 71.2853 13.3764 71.2853 14.4636C71.2853 15.5594 71.7656 16.1903 72.6192 16.1903C73.4696 16.1902 73.9542 15.555 73.9542 14.4636H73.9541Z" fill="white"/>
<path d="M81.2036 16.9723H80.1849L79.1564 13.2786H79.0787L78.0545 16.9723H77.0455L75.6738 11.957H76.6699L77.5613 15.784H77.6347L78.6578 11.957H79.5999L80.623 15.784H80.7007L81.5878 11.957H82.5699L81.2036 16.9723Z" fill="white"/>
<path d="M83.7227 11.9572H84.668V12.7539H84.7414C84.8659 12.4678 85.0759 12.2279 85.3421 12.0677C85.6083 11.9076 85.9174 11.8351 86.2264 11.8604C86.4685 11.8421 86.7116 11.8789 86.9377 11.9681C87.1638 12.0573 87.3671 12.1966 87.5325 12.3758C87.698 12.5549 87.8213 12.7693 87.8933 13.003C87.9654 13.2367 87.9843 13.4837 87.9488 13.7258V16.9725H86.9667V13.9743C86.9667 13.1684 86.6192 12.7675 85.8929 12.7675C85.7285 12.7598 85.5644 12.788 85.4119 12.8502C85.2593 12.9124 85.1219 13.0071 85.009 13.1278C84.8962 13.2485 84.8105 13.3924 84.758 13.5496C84.7055 13.7068 84.6873 13.8736 84.7047 14.0385V16.9725H83.7227L83.7227 11.9572Z" fill="white"/>
<path d="M89.5137 10H90.4957V16.9731H89.5137V10Z" fill="white"/>
<path d="M91.8607 14.4637C91.8294 14.134 91.8669 13.8015 91.9706 13.4873C92.0743 13.1731 92.242 12.8843 92.463 12.6392C92.684 12.3942 92.9533 12.1985 93.2538 12.0645C93.5542 11.9305 93.8791 11.8613 94.2077 11.8613C94.5362 11.8613 94.8611 11.9305 95.1615 12.0645C95.462 12.1985 95.7313 12.3942 95.9523 12.6392C96.1733 12.8843 96.341 13.1731 96.4447 13.4873C96.5485 13.8015 96.5859 14.134 96.5546 14.4637C96.5865 14.7936 96.5495 15.1266 96.446 15.4413C96.3426 15.7559 96.1749 16.0453 95.9539 16.2908C95.7329 16.5363 95.4633 16.7325 95.1626 16.8667C94.8618 17.0009 94.5366 17.0703 94.2077 17.0703C93.8788 17.0703 93.5535 17.0009 93.2527 16.8667C92.952 16.7325 92.6825 16.5363 92.4614 16.2908C92.2404 16.0453 92.0728 15.7559 91.9693 15.4413C91.8658 15.1266 91.8288 14.7936 91.8607 14.4637ZM95.544 14.4637C95.544 13.3765 95.0594 12.7408 94.209 12.7408C93.3554 12.7408 92.8752 13.3765 92.8752 14.4637C92.8752 15.5595 93.3554 16.1904 94.209 16.1904C95.0594 16.1903 95.544 15.5551 95.544 14.4637H95.544Z" fill="white"/>
<path d="M97.5898 15.5551C97.5898 14.6523 98.2568 14.1319 99.4407 14.0579L100.789 13.9796V13.5467C100.789 13.017 100.441 12.7179 99.7698 12.7179C99.2216 12.7179 98.8417 12.9207 98.7327 13.2753H97.7819C97.8823 12.4139 98.6863 11.8613 99.8151 11.8613C101.063 11.8613 101.766 12.4873 101.766 13.5467V16.9734H100.821V16.2686H100.743C100.586 16.5214 100.364 16.7275 100.101 16.8659C99.8389 17.0042 99.5446 17.0699 99.2486 17.0561C99.0397 17.078 98.8285 17.0555 98.6288 16.9901C98.429 16.9247 98.2451 16.8179 98.0888 16.6765C97.9325 16.5351 97.8074 16.3622 97.7214 16.1691C97.6355 15.9759 97.5907 15.7668 97.5898 15.5551ZM100.789 15.1265V14.7072L99.5734 14.7856C98.8881 14.8318 98.5773 15.0667 98.5773 15.5089C98.5773 15.9602 98.9658 16.2229 99.5 16.2229C99.6566 16.2389 99.8147 16.223 99.965 16.1761C100.115 16.1292 100.255 16.0523 100.375 15.95C100.495 15.8477 100.594 15.7221 100.665 15.5807C100.736 15.4392 100.778 15.2847 100.789 15.1265Z" fill="white"/>
<path d="M103.057 14.4633C103.057 12.8786 103.865 11.8746 105.122 11.8746C105.433 11.8602 105.742 11.9353 106.012 12.0911C106.282 12.2469 106.503 12.477 106.648 12.7545H106.722V10H107.704V16.9731H106.763V16.1807H106.685C106.528 16.4564 106.3 16.6837 106.025 16.8379C105.749 16.9921 105.437 17.0675 105.122 17.0558C103.856 17.0558 103.057 16.0519 103.057 14.4633ZM104.071 14.4633C104.071 15.5271 104.569 16.1672 105.401 16.1672C106.228 16.1672 106.74 15.5178 106.74 14.4677C106.74 13.4224 106.223 12.7638 105.401 12.7638C104.574 12.7638 104.071 13.4083 104.071 14.4633H104.071Z" fill="white"/>
<path d="M111.765 14.4636C111.734 14.134 111.771 13.8014 111.875 13.4873C111.979 13.1731 112.146 12.8842 112.367 12.6392C112.588 12.3942 112.857 12.1985 113.158 12.0645C113.458 11.9305 113.783 11.8613 114.112 11.8613C114.44 11.8613 114.765 11.9305 115.066 12.0645C115.366 12.1985 115.635 12.3942 115.856 12.6392C116.077 12.8842 116.245 13.1731 116.349 13.4873C116.452 13.8014 116.49 14.134 116.458 14.4636C116.49 14.7935 116.453 15.1265 116.35 15.4412C116.246 15.7558 116.079 16.0452 115.858 16.2907C115.637 16.5362 115.367 16.7324 115.067 16.8666C114.766 17.0009 114.441 17.0702 114.112 17.0702C113.783 17.0702 113.458 17.0009 113.157 16.8666C112.856 16.7324 112.587 16.5362 112.366 16.2907C112.145 16.0452 111.977 15.7558 111.874 15.4412C111.77 15.1265 111.733 14.7935 111.765 14.4636ZM115.448 14.4636C115.448 13.3764 114.964 12.7407 114.113 12.7407C113.26 12.7407 112.779 13.3764 112.779 14.4636C112.779 15.5594 113.26 16.1903 114.113 16.1903C114.964 16.1902 115.448 15.555 115.448 14.4636Z" fill="white"/>
<path d="M117.777 11.9572H118.723V12.7539H118.796C118.921 12.4678 119.131 12.2279 119.397 12.0677C119.663 11.9076 119.972 11.8351 120.281 11.8604C120.523 11.8421 120.766 11.8789 120.992 11.9681C121.219 12.0573 121.422 12.1966 121.587 12.3758C121.753 12.5549 121.876 12.7693 121.948 13.003C122.02 13.2367 122.039 13.4837 122.003 13.7258V16.9725H121.021V13.9743C121.021 13.1684 120.674 12.7675 119.948 12.7675C119.783 12.7598 119.619 12.788 119.467 12.8502C119.314 12.9124 119.177 13.0071 119.064 13.1278C118.951 13.2485 118.865 13.3924 118.813 13.5496C118.76 13.7068 118.742 13.8736 118.759 14.0385V16.9725H117.777V11.9572Z" fill="white"/>
<path d="M127.552 10.709V11.9805H128.631V12.8142H127.552V15.3931C127.552 15.9184 127.767 16.1485 128.256 16.1485C128.381 16.1481 128.506 16.1405 128.631 16.1256V16.9501C128.454 16.9819 128.275 16.9988 128.096 17.0007C127.004 17.0007 126.569 16.6135 126.569 15.6465V12.8142H125.779V11.9804H126.569V10.709H127.552Z" fill="white"/>
<path d="M129.971 10H130.944V12.7638H131.022C131.152 12.475 131.368 12.2337 131.64 12.073C131.911 11.9122 132.225 11.8397 132.539 11.8654C132.78 11.8522 133.021 11.8927 133.244 11.9841C133.468 12.0755 133.669 12.2154 133.832 12.394C133.996 12.5726 134.119 12.7854 134.191 13.0172C134.264 13.249 134.285 13.4942 134.253 13.7351V16.9731H133.27V13.9793C133.27 13.1782 132.9 12.7725 132.206 12.7725C132.037 12.7585 131.867 12.7819 131.708 12.841C131.549 12.9001 131.405 12.9935 131.286 13.1146C131.167 13.2357 131.075 13.3816 131.017 13.5422C130.96 13.7027 130.938 13.874 130.953 14.044V16.9731H129.971L129.971 10Z" fill="white"/>
<path d="M139.98 15.6194C139.847 16.0777 139.558 16.4742 139.163 16.7395C138.769 17.0047 138.295 17.1218 137.824 17.0703C137.496 17.079 137.17 17.0158 136.869 16.8849C136.568 16.754 136.299 16.5586 136.08 16.3123C135.861 16.066 135.698 15.7746 135.602 15.4585C135.507 15.1424 135.48 14.8091 135.525 14.4816C135.481 14.1532 135.508 13.8191 135.604 13.5021C135.699 13.185 135.862 12.8923 136.079 12.6439C136.297 12.3954 136.565 12.197 136.865 12.062C137.165 11.927 137.491 11.8586 137.819 11.8614C139.204 11.8614 140.039 12.8148 140.039 14.3897V14.7351H136.526V14.7905C136.51 14.9746 136.533 15.1599 136.593 15.3344C136.653 15.509 136.748 15.6691 136.873 15.8044C136.998 15.9396 137.149 16.0471 137.317 16.12C137.486 16.1928 137.668 16.2294 137.851 16.2273C138.086 16.2558 138.324 16.2131 138.535 16.1049C138.745 15.9966 138.919 15.8276 139.035 15.6193L139.98 15.6194ZM136.526 14.0031H139.039C139.051 13.8347 139.029 13.6657 138.972 13.5067C138.916 13.3477 138.827 13.2024 138.712 13.0801C138.597 12.9577 138.457 12.861 138.303 12.7962C138.148 12.7314 137.981 12.7 137.814 12.7038C137.644 12.7017 137.476 12.7338 137.318 12.7984C137.161 12.8629 137.018 12.9585 136.898 13.0796C136.778 13.2007 136.683 13.3448 136.619 13.5034C136.555 13.662 136.523 13.8319 136.526 14.0031H136.526Z" fill="white"/>
<path d="M69.062 32.4051H63.8311L62.575 36.1435H60.3594L65.314 22.3125H67.6159L72.5705 36.1435H70.3171L69.062 32.4051ZM64.3729 30.6801H68.5192L66.4752 24.613H66.418L64.3729 30.6801Z" fill="white"/>
<path d="M83.2703 31.102C83.2703 34.2356 81.6062 36.2489 79.0949 36.2489C78.4588 36.2825 77.8261 36.1348 77.2694 35.8228C76.7126 35.5107 76.2543 35.047 75.9469 34.4847H75.8994V39.4793H73.8457V26.0595H75.8336V27.7367H75.8714C76.1929 27.1771 76.6589 26.7158 77.2199 26.4018C77.7809 26.0879 78.4158 25.9332 79.0571 25.954C81.5965 25.954 83.2703 27.9771 83.2703 31.102ZM81.1594 31.102C81.1594 29.0604 80.1126 27.7182 78.5154 27.7182C76.9463 27.7182 75.8908 29.0887 75.8908 31.102C75.8908 33.1338 76.9463 34.4945 78.5154 34.4945C80.1126 34.4945 81.1594 33.1621 81.1594 31.102H81.1594Z" fill="white"/>
<path d="M94.2826 31.102C94.2826 34.2356 92.6179 36.2489 90.1066 36.2489C89.4705 36.2825 88.8378 36.1348 88.2811 35.8228C87.7243 35.5107 87.266 35.047 86.9586 34.4847H86.9111V39.4793H84.8574V26.0595H86.8453V27.7367H86.8831C87.2046 27.1771 87.6706 26.7158 88.2316 26.4018C88.7926 26.0879 89.4275 25.9332 90.0688 25.954C92.6082 25.954 94.2826 27.9771 94.2826 31.102ZM92.1711 31.102C92.1711 29.0604 91.1243 27.7182 89.5271 27.7182C87.958 27.7182 86.9025 29.0887 86.9025 31.102C86.9025 33.1338 87.958 34.4945 89.5271 34.4945C91.1243 34.4945 92.1711 33.1621 92.1711 31.102Z" fill="white"/>
<path d="M101.561 32.29C101.713 33.6616 103.036 34.5621 104.842 34.5621C106.573 34.5621 107.818 33.6615 107.818 32.4248C107.818 31.3513 107.067 30.7085 105.289 30.2679L103.51 29.8361C100.99 29.2227 99.8206 28.0349 99.8206 26.1075C99.8206 23.7212 101.884 22.082 104.813 22.082C107.714 22.082 109.702 23.7212 109.769 26.1075H107.695C107.571 24.7273 106.439 23.8941 104.785 23.8941C103.13 23.8941 101.998 24.7371 101.998 25.964C101.998 26.9418 102.721 27.5172 104.49 27.9577L106.002 28.3318C108.818 29.0029 109.987 30.1428 109.987 32.1659C109.987 34.7535 107.943 36.3741 104.69 36.3741C101.647 36.3741 99.5917 34.7916 99.459 32.2899L101.561 32.29Z" fill="white"/>
<path d="M114.421 23.6738V26.0602H116.323V27.6993H114.421V33.2585C114.421 34.1221 114.801 34.5246 115.638 34.5246C115.864 34.5206 116.089 34.5046 116.313 34.4767V36.106C115.937 36.1768 115.555 36.2089 115.173 36.2017C113.147 36.2017 112.357 35.4349 112.357 33.4793V27.6993H110.902V26.0602H112.357V23.6738H114.421Z" fill="white"/>
<path d="M117.424 31.102C117.424 27.9293 119.278 25.9355 122.169 25.9355C125.07 25.9355 126.915 27.9292 126.915 31.102C126.915 34.2835 125.08 36.2685 122.169 36.2685C119.26 36.2685 117.424 34.2835 117.424 31.102ZM124.823 31.102C124.823 28.9256 123.833 27.641 122.169 27.641C120.505 27.641 119.515 28.9354 119.515 31.102C119.515 33.2872 120.505 34.562 122.169 34.562C123.833 34.562 124.823 33.2872 124.823 31.102H124.823Z" fill="white"/>
<path d="M128.607 26.0594H130.566V27.7758H130.614C130.746 27.2397 131.058 26.766 131.496 26.4342C131.934 26.1024 132.473 25.9328 133.02 25.9539C133.257 25.9531 133.493 25.979 133.724 26.0311V27.9672C133.425 27.8752 133.113 27.8329 132.801 27.8421C132.503 27.8299 132.205 27.8829 131.929 27.9975C131.653 28.1121 131.405 28.2856 131.202 28.506C130.998 28.7264 130.845 28.9885 130.751 29.2744C130.658 29.5603 130.627 29.8631 130.661 30.1621V36.1433H128.607L128.607 26.0594Z" fill="white"/>
<path d="M143.193 33.1817C142.917 35.0123 141.148 36.2685 138.885 36.2685C135.975 36.2685 134.168 34.3031 134.168 31.1499C134.168 27.9869 135.984 25.9355 138.799 25.9355C141.567 25.9355 143.308 27.852 143.308 30.9095V31.6187H136.241V31.7438C136.208 32.1149 136.255 32.4887 136.376 32.8405C136.498 33.1923 136.693 33.5139 136.947 33.7841C137.202 34.0542 137.511 34.2667 137.853 34.4074C138.195 34.5481 138.563 34.6137 138.933 34.6C139.418 34.6458 139.905 34.5326 140.321 34.277C140.738 34.0215 141.061 33.6373 141.243 33.1817L143.193 33.1817ZM136.251 30.1721H141.253C141.271 29.8384 141.221 29.5045 141.105 29.1913C140.99 28.878 140.811 28.5923 140.581 28.352C140.35 28.1117 140.073 27.922 139.766 27.7947C139.46 27.6675 139.13 27.6056 138.799 27.6128C138.464 27.6107 138.133 27.6755 137.823 27.8033C137.514 27.9311 137.233 28.1194 136.996 28.3573C136.759 28.5953 136.571 28.8782 136.443 29.1896C136.315 29.5011 136.25 29.835 136.251 30.1721V30.1721Z" fill="white"/>
</svg>
