<svg width="62" height="61" viewBox="0 0 62 61" fill="none" xmlns="http://www.w3.org/2000/svg">
<circle cx="21.1512" cy="35.9198" r="17.9208" fill="#FFEDDD"/>
<path d="M45.2929 23.6925H36.1489L39.5525 21.2985C40.0716 20.9525 40.1871 20.2603 39.841 19.7408C39.495 19.2217 38.8028 19.1062 38.2833 19.4523L32.2548 23.6635H26.6302L30.0338 21.2696C30.5529 20.9235 30.6684 20.2314 30.3223 19.7119C29.9763 19.1928 29.2841 19.0773 28.7646 19.4234L22.7075 23.6925H16.679C13.3619 23.6925 10.6504 26.4039 10.6504 29.7211V37.1628C10.6504 38.5475 11.3425 39.8453 12.4677 40.6244V43.9994C12.4677 45.9897 14.112 47.605 16.1309 47.605H17.0251C18.0057 47.605 18.8999 47.23 19.5925 46.5668C20.2846 45.8747 20.6596 44.9806 20.6596 43.9994C20.6596 43.3938 20.1691 42.8743 19.5345 42.8743C18.9288 42.8743 18.4093 43.3648 18.4093 43.9994C18.4093 44.3455 18.2652 44.6916 18.0053 44.9511C17.7457 45.2107 17.3707 45.3552 16.9956 45.3552H16.1015C15.3228 45.3552 14.6882 44.7495 14.6882 43.9995V39.9613C14.6882 39.5287 14.4286 39.1247 14.0536 38.9516C13.3325 38.6056 12.8709 37.9134 12.8709 37.1343L12.8713 29.7211C12.8713 27.6153 14.5732 25.9135 16.679 25.9135H45.293C47.3988 25.9135 49.1006 27.6153 49.1006 29.7211V37.1628C49.1006 37.9415 48.6391 38.634 47.918 38.9802C47.514 39.1532 47.2834 39.5572 47.2834 39.9898V43.9995C47.2834 44.7495 46.6488 45.3552 45.8701 45.3552H44.9759C44.1973 45.3552 43.5626 44.7495 43.5626 43.9995C43.5626 43.3938 43.0721 42.8743 42.4375 42.8743C41.8029 42.8743 41.3123 43.3648 41.3123 43.9995C41.3123 45.9897 42.9566 47.6051 44.9755 47.6051H45.8697C47.889 47.6051 49.5329 45.9897 49.5329 43.9995V40.6244C50.658 39.8457 51.3502 38.5476 51.3502 37.1628V29.7211C51.3212 26.4036 48.6097 23.6925 45.2927 23.6925L45.2929 23.6925Z" fill="#2FA0FF"/>
<path d="M11.7755 22.3368H16.1022C16.5348 22.3368 16.9388 22.0773 17.1118 21.7022L18.3521 19.0483C18.381 18.9908 18.4096 18.9328 18.4096 18.8753C18.9577 16.9715 20.746 15.6157 22.7939 15.6157H39.2066C41.2545 15.6157 43.0428 16.9425 43.5909 18.8753C43.6199 18.9328 43.6199 18.9908 43.6484 19.0483L44.8887 21.7022C45.0617 22.1062 45.4657 22.3368 45.8983 22.3368H50.225C50.8307 22.3368 51.3502 21.8463 51.3502 21.2117C51.3502 20.606 50.8597 20.0865 50.225 20.0865H46.6194L45.7253 18.1828C44.8887 15.3559 42.2352 13.3945 39.2352 13.3945H22.8225C19.8226 13.3945 17.169 15.3559 16.3324 18.1828L15.3811 20.1156H11.7755C11.1699 20.1156 10.6504 20.6061 10.6504 21.2407C10.6508 21.8464 11.1409 22.3369 11.7755 22.3369L11.7755 22.3368Z" fill="#08B059"/>
<path d="M19.5635 41.1146H42.4375C43.0431 41.1146 43.5626 40.624 43.5626 39.9894C43.5626 39.3548 43.0721 38.8643 42.4375 38.8643H19.5635C18.9579 38.8643 18.4384 39.3548 18.4384 39.9894C18.4384 40.6244 18.9289 41.1146 19.5635 41.1146V41.1146Z" fill="#2FA0FF"/>
<path d="M35.4289 35.6917C36.0345 35.6917 36.554 35.2012 36.554 34.5666C36.554 33.9609 36.0635 33.4414 35.4289 33.4414L26.5734 33.4418C25.9678 33.4418 25.4482 33.9323 25.4482 34.567C25.4482 35.1726 25.9388 35.6921 26.5734 35.6921L35.4289 35.6917Z" fill="#2FA0FF"/>
<path d="M21.1509 31.5387C21.1509 29.6925 19.6511 28.2217 17.8338 28.2217C16.9397 28.2217 16.1031 28.5678 15.4685 29.2024C14.8339 29.837 14.4878 30.6736 14.4878 31.5677C14.4878 33.3851 15.9876 34.8848 17.8048 34.8848C19.6797 34.8848 21.1508 33.385 21.1508 31.5388L21.1509 31.5387ZM17.8338 32.635C17.2282 32.635 16.7376 32.1444 16.7376 31.5387C16.7376 31.2502 16.8531 30.9617 17.0547 30.7601C17.2567 30.5581 17.5453 30.443 17.8334 30.443C18.439 30.443 18.9296 30.9335 18.9296 31.5392C18.93 32.1448 18.4395 32.635 17.8338 32.635L17.8338 32.635Z" fill="#08B059"/>
<path d="M47.4574 31.567C47.4574 29.7208 45.9576 28.25 44.1404 28.25C42.2941 28.25 40.8233 29.7498 40.8233 31.567C40.8233 32.4612 41.1694 33.2978 41.804 33.9035C42.4386 34.5381 43.2752 34.8841 44.1694 34.8841C45.9867 34.8841 47.4575 33.3843 47.4575 31.5671L47.4574 31.567ZM43.0441 31.567C43.0441 30.9614 43.5347 30.4708 44.1404 30.4708C44.746 30.4708 45.2366 30.9614 45.2366 31.567C45.2366 32.1727 44.746 32.6633 44.1404 32.6633C43.8518 32.6633 43.5633 32.5478 43.3617 32.3462C43.1597 32.1152 43.0442 31.8556 43.0442 31.5671L43.0441 31.567Z" fill="#08B059"/>
</svg>
