<svg width="62" height="61" viewBox="0 0 62 61" fill="none" xmlns="http://www.w3.org/2000/svg">
<circle cx="21.9325" cy="34.1385" r="17.9208" fill="#FFEDDD"/>
<path d="M31.6754 8.0373C31.4469 8.04764 31.2251 8.11978 31.0341 8.24544C30.8428 8.3714 30.6894 8.54643 30.5894 8.7525C30.4738 8.97927 29.8967 9.25956 28.9071 9.79883C28.4125 10.0685 27.8409 10.4384 27.3838 11.0439C27.1104 11.4063 26.9004 11.8575 26.7745 12.3554C19.9323 12.85 14.3871 17.7326 12.1649 24.2629C9.46488 24.7061 7.56848 27.0256 7.56848 29.6803C7.56848 32.3309 9.45603 34.6539 12.1516 35.0977C12.2695 35.4463 12.3727 35.8055 12.5093 36.144C12.6335 36.4601 12.8789 36.7132 13.1905 36.8471C13.5024 36.9811 13.8549 36.9849 14.1695 36.8575C14.4841 36.7303 14.7348 36.4826 14.8658 36.1695C14.9967 35.8564 14.9973 35.5039 14.867 35.1905C14.6541 34.6621 14.4581 34.1184 14.2975 33.5611C14.2201 33.2977 14.0598 33.0665 13.8401 32.9015C13.6204 32.7368 13.3535 32.6475 13.0788 32.6472C11.1593 32.6472 10.1118 31.4022 10.1118 29.6803C10.1118 27.9583 11.1558 26.7183 13.0788 26.7133C13.3549 26.7121 13.6234 26.6208 13.8434 26.4537C14.0631 26.2864 14.2224 26.0519 14.2975 25.7861C16.1431 19.4187 21.4688 14.8422 27.9269 14.8452C34.3866 14.8479 39.6974 19.4176 41.5435 25.7861C41.6183 26.0519 41.7777 26.2864 41.9976 26.4537C42.2176 26.6208 42.4858 26.7121 42.7622 26.7133C44.6852 26.7183 45.7292 27.9583 45.7292 29.6803C45.7292 31.4022 44.6817 32.6472 42.7622 32.6472C42.4876 32.6475 42.2206 32.7368 42.0009 32.9015C41.7812 33.0665 41.6207 33.2977 41.5435 33.5611C39.7068 39.9365 34.3917 44.5157 27.9141 44.5157C23.4295 44.5118 19.5314 42.3189 16.9202 38.8467C16.7185 38.575 16.4172 38.3946 16.0826 38.3455C15.7479 38.2965 15.4073 38.3825 15.1362 38.585C14.865 38.7875 14.6859 39.0894 14.638 39.4244C14.5898 39.7591 14.677 40.0994 14.8804 40.3699C17.9204 44.4116 22.5977 47.0542 27.9142 47.059C35.2927 47.059 41.3377 41.9952 43.6765 35.0978C46.3792 34.6593 48.2729 32.3351 48.2729 29.6804C48.2729 27.0256 46.3765 24.7061 43.6765 24.263C41.5114 17.8982 36.1986 13.0957 29.5967 12.3948C29.7236 12.2828 29.8888 12.1595 30.1133 12.0371C30.824 11.6498 32.1557 11.3032 32.8682 9.90476C33.0101 9.63807 33.0527 9.32969 32.9882 9.03463C32.9235 8.73985 32.7561 8.4773 32.5158 8.29459C32.2754 8.11187 31.9777 8.02051 31.6761 8.03707L31.6754 8.0373ZM21.5557 24.5944C20.3852 24.5944 19.4364 25.5432 19.4364 26.7137C19.4364 27.8842 20.3852 28.833 21.5557 28.833C22.7263 28.833 23.675 27.8842 23.675 26.7137C23.675 25.5432 22.7263 24.5944 21.5557 24.5944ZM34.2852 24.5944C33.1147 24.5944 32.1659 25.5432 32.1659 26.7137C32.1659 27.8842 33.1147 28.833 34.2852 28.833C35.4557 28.833 36.4045 27.8842 36.4045 26.7137C36.4045 25.5432 35.4557 24.5944 34.2852 24.5944ZM32.1659 36.8334C31.9252 36.8366 31.6905 36.9079 31.4888 37.0392C31.2872 37.1708 31.1269 37.3564 31.0267 37.5752C30.692 38.2292 29.4751 39.0056 27.914 39.0056C26.3481 39.0056 25.1477 38.2298 24.8146 37.5752C24.7114 37.3632 24.5517 37.1843 24.3527 37.0581C24.154 36.9319 23.924 36.8633 23.6887 36.86C23.2396 36.8544 22.8209 37.0859 22.587 37.4694C22.3534 37.8525 22.339 38.3309 22.5495 38.7274C23.4793 40.5546 25.5836 41.5489 27.914 41.5489C30.2432 41.5489 32.3592 40.5493 33.2918 38.7274C33.4381 38.4666 33.4881 38.1624 33.4322 37.8685C33.3766 37.5746 33.2193 37.3097 32.9875 37.1202C32.756 36.9309 32.4651 36.8295 32.1659 36.8334L32.1659 36.8334Z" fill="#2FA0FF"/>
</svg>
