<svg width="61" height="61" viewBox="0 0 61 61" fill="none" xmlns="http://www.w3.org/2000/svg">
<circle cx="24.0126" cy="35.9198" r="17.9208" fill="#FFEDDD"/>
<path d="M26.3707 11.3472C26.3707 10.6616 25.8227 10.1475 25.1907 10.1475C24.5586 10.1475 24.0106 10.7046 24.0106 11.3472V15.1178H26.413L26.4127 11.3472H26.3707Z" fill="#08B059"/>
<path d="M31.6799 11.3472C31.6799 10.6616 31.132 10.1475 30.4999 10.1475C29.8678 10.1475 29.3198 10.7046 29.3198 11.3472V15.1178H31.7222L31.7219 11.3472H31.6799Z" fill="#2FA0FF"/>
<path d="M10.4818 25.0581C10.4818 25.7438 11.0298 26.2578 11.6619 26.2578H15.3706V23.8154L11.6619 23.8157C11.0298 23.8585 10.4818 24.4156 10.4818 25.0581V25.0581Z" fill="#08B059"/>
<path d="M10.4818 30.4995C10.4818 31.1852 11.0298 31.6993 11.6619 31.6993H15.3706V29.2568L11.6619 29.2571C11.0298 29.2999 10.4818 29.8139 10.4818 30.4995V30.4995Z" fill="#08B059"/>
<path d="M37.0332 11.3472C37.0332 10.6616 36.4852 10.1475 35.8531 10.1475C35.2211 10.1475 34.6731 10.7046 34.6731 11.3472V15.1178H37.0755L37.0752 11.3472H37.0332Z" fill="#08B059"/>
<path d="M50.5183 25.0581C50.5183 24.3725 49.9704 23.8584 49.3383 23.8584H45.6295V26.3008H49.3383C49.9703 26.3008 50.5183 25.7437 50.5183 25.0581Z" fill="#08B059"/>
<path d="M49.3383 29.2998H45.6295V31.7422H49.3383C50.0127 31.7422 50.5183 31.1851 50.5183 30.5425C50.5183 29.8996 49.9704 29.2998 49.3383 29.2998Z" fill="#08B059"/>
<path d="M49.3383 34.6982H45.6295V37.1407H49.3383C50.0127 37.1407 50.5183 36.5836 50.5183 35.941C50.5183 35.2981 49.9704 34.6982 49.3383 34.6982Z" fill="#08B059"/>
<path d="M10.4818 35.941C10.4818 36.6266 11.0298 37.1407 11.6619 37.1407H15.3706V34.6982H11.6619C11.0298 34.6982 10.4818 35.2553 10.4818 35.941Z" fill="#08B059"/>
<path d="M34.6301 49.6524C34.6301 50.338 35.178 50.8521 35.8101 50.8521C36.4422 50.8521 36.9902 50.295 36.9902 49.6524V45.8818H34.5878L34.5881 49.6524H34.6301Z" fill="#08B059"/>
<path d="M23.9676 49.6524C23.9676 50.338 24.5156 50.8521 25.1476 50.8521C25.7797 50.8521 26.3277 50.295 26.3277 49.6524V45.8818H23.9253L23.9256 49.6524H23.9676Z" fill="#08B059"/>
<path d="M29.3209 49.6524C29.3209 50.338 29.8688 50.8521 30.5009 50.8521C31.133 50.8521 31.681 50.295 31.681 49.6524V45.8818H29.2786L29.2789 49.6524H29.3209Z" fill="#2FA0FF"/>
<path d="M38.3395 17.2168H22.6618C19.7961 17.2168 17.4358 19.6164 17.4358 22.5299V38.4689C17.4358 41.3823 19.7961 43.7819 22.6618 43.7819H38.3395C41.2051 43.7819 43.5654 41.3823 43.5654 38.4689V22.5299C43.5654 19.6164 41.2051 17.2168 38.3395 17.2168V17.2168ZM41.1631 38.4688C41.1631 40.054 39.8987 41.3395 38.3395 41.3395H22.6618C21.1025 41.3395 19.8381 40.054 19.8381 38.4688V22.5298C19.8381 20.9445 21.1025 19.6591 22.6618 19.6591H38.3395C39.8987 19.6591 41.1631 20.9445 41.1631 22.5298V38.4688Z" fill="#2FA0FF"/>
<path d="M36.7795 22.873H24.2204C23.5461 22.873 23.0404 23.4301 23.0404 24.0728V36.8839C23.0404 37.5695 23.5884 38.0836 24.2204 38.0836H36.8216C37.496 38.0836 38.0017 37.5265 38.0017 36.8839V24.1156C38.0017 23.4303 37.4537 22.8732 36.7796 22.8732L36.7795 22.873ZM35.5994 35.6842H25.4005V25.3153H35.5994V35.6842Z" fill="#08B059"/>
</svg>
