<svg width="61" height="61" viewBox="0 0 61 61" fill="none" xmlns="http://www.w3.org/2000/svg">
<circle cx="20.7587" cy="33.2196" r="17.9208" fill="#FFEDDD"/>
<path d="M49.4926 29.8639H47.815C48.8053 28.2647 49.3289 26.4196 49.3263 24.5384C49.3232 21.8345 48.2475 19.2418 46.3359 17.3303C44.4238 15.4181 41.8317 14.3431 39.1278 14.3398C35.574 14.3398 32.4622 16.2844 30.1839 19.8697C27.9056 16.2818 24.7937 14.3398 21.24 14.3398C18.5361 14.343 15.944 15.4186 14.0319 17.3303C12.1198 19.2424 11.0447 21.8345 11.0415 24.5384C11.0377 26.4196 11.5606 28.2649 12.5509 29.8639H11.5075C10.7563 29.8639 10.1473 30.4729 10.1473 31.2241C10.1473 31.9753 10.7563 32.5836 11.5075 32.5836H14.8615L29.2443 46.2854C29.7698 46.7856 30.595 46.7856 31.1205 46.2854L45.5033 32.5836H49.4922C50.2435 32.5836 50.8518 31.9753 50.8518 31.2241C50.8518 30.4729 50.2435 29.8639 49.4922 29.8639H49.4926ZM13.759 24.5358C13.7615 22.5527 14.55 20.6519 15.952 19.25C17.3539 17.8481 19.2547 17.059 21.2377 17.057C25.241 17.057 27.639 20.4476 28.9436 23.2901C29.1649 23.7726 29.6474 24.0824 30.1792 24.0824C30.7103 24.0824 31.1928 23.7726 31.4148 23.2901C32.7218 20.4471 35.1198 17.057 39.1206 17.057H39.12C41.1126 17.052 43.0234 17.8437 44.4299 19.255C45.8356 20.6671 46.619 22.5819 46.6064 24.5736C46.5937 26.5662 45.7862 28.4701 44.3629 29.8639H32.8852C32.2946 29.8639 31.7716 30.2452 31.5908 30.8067L30.6688 33.6675L28.6997 25.3692V25.3698C28.5637 24.7969 28.0755 24.377 27.4894 24.3277C26.9051 24.2872 26.3581 24.6186 26.1241 25.1554L24.1398 29.8639H16.0009C14.5636 28.4645 13.7548 26.5421 13.7592 24.5357L13.759 24.5358ZM30.1818 43.4224L18.8059 32.584H25.0453C25.5929 32.5846 26.0868 32.2565 26.2993 31.7518L27.0182 30.0464L29.1492 39.0328V39.0334C29.2947 39.624 29.8107 40.0489 30.4184 40.0787C31.0191 40.073 31.5547 39.6986 31.7665 39.1365L33.8786 32.584H41.5597L30.1818 43.4224Z" fill="#2FA0FF"/>
</svg>
