<svg width="61" height="61" viewBox="0 0 61 61" fill="none" xmlns="http://www.w3.org/2000/svg">
<circle cx="21.6434" cy="35.9198" r="17.9208" fill="#FFEDDD"/>
<path d="M46.7815 15.5747H40.836L39.2472 12.3971C38.5537 11.0092 37.1575 10.1475 35.6068 10.1475H25.3927C23.8418 10.1475 22.4471 11.0091 21.7524 12.3971L20.1633 15.5747H14.2178C11.9736 15.5747 10.1473 17.401 10.1473 19.6452V28.1473C10.1473 29.3279 10.6737 30.4037 11.5042 31.1554V46.782C11.5042 49.0261 13.3304 50.8524 15.5746 50.8524H45.4245C47.6687 50.8524 49.495 49.0261 49.495 46.782V31.1538C50.3254 30.4021 50.8518 29.3275 50.8518 28.1458V19.6452C50.8518 17.401 49.0255 15.5747 46.7813 15.5747H46.7815ZM24.1793 13.6113C24.4101 13.1488 24.8753 12.8611 25.3923 12.8611H35.6064C36.1234 12.8611 36.5889 13.1488 36.8194 13.6113L37.8019 15.5747H23.1971L24.1793 13.6113ZM12.8611 19.6452C12.8611 18.8977 13.4705 18.2883 14.2179 18.2883H46.7815C47.5289 18.2883 48.1383 18.8977 48.1383 19.6452V28.1473C48.1383 28.8176 47.6377 29.3942 46.9729 29.4905L34.5701 31.261V29.1432C34.5701 28.3942 33.9622 27.7864 33.2133 27.7864H27.786C27.037 27.7864 26.4292 28.3942 26.4292 29.1432V31.2626L14.0256 29.4906C13.362 29.3943 12.8614 28.8176 12.8614 28.1474L12.8611 19.6452ZM31.8565 30.4997V35.9269H29.1429V30.4997H31.8565ZM45.4247 48.1382H15.5748C14.8273 48.1382 14.2179 47.5289 14.2179 46.7814V32.2565L26.4293 34.0013V37.2834C26.4293 38.0324 27.0371 38.6402 27.7861 38.6402H33.2133C33.9623 38.6402 34.5702 38.0324 34.5702 37.2834V34.0013L46.7815 32.2565V46.7814C46.7815 47.5289 46.1721 48.1382 45.4247 48.1382Z" fill="#08B059"/>
</svg>
