<svg width="425" height="95" viewBox="0 0 425 95" fill="none" xmlns="http://www.w3.org/2000/svg">
<path d="M100.86 29.12V33.12H44.24V25H32V17H48.22C48.7619 17 49.2985 17.1069 49.799 17.3146C50.2995 17.5222 50.7541 17.8266 51.1368 18.2103C51.5195 18.5939 51.8228 19.0493 52.0293 19.5503C52.2357 20.0513 52.3413 20.5881 52.34 21.13V25.13H96.83C97.357 25.126 97.8795 25.2263 98.3676 25.4249C98.8558 25.6235 99.2998 25.9166 99.6743 26.2874C100.049 26.6582 100.346 27.0993 100.55 27.5854C100.753 28.0715 100.859 28.593 100.86 29.12Z" fill="#91C849"/>
<path d="M100.86 29.12V33.12H73.86L76.62 25.12H96.83C97.3578 25.116 97.8812 25.2166 98.3699 25.4158C98.8587 25.6151 99.3032 25.9091 99.6778 26.2809C100.052 26.6527 100.35 27.095 100.553 27.5823C100.756 28.0696 100.86 28.5922 100.86 29.12Z" fill="#7BC142"/>
<path d="M44.24 37.24V61.8C44.24 62.8304 44.4431 63.8507 44.8377 64.8025C45.2324 65.7544 45.8107 66.6191 46.5398 67.3472C47.2689 68.0754 48.1343 68.6527 49.0867 69.0461C50.039 69.4395 51.0596 69.6413 52.09 69.64H93.02C94.0496 69.64 95.069 69.4372 96.0202 69.0432C96.9714 68.6492 97.8357 68.0717 98.5637 67.3437C99.2917 66.6157 99.8692 65.7514 100.263 64.8002C100.657 63.849 100.86 62.8296 100.86 61.8V37.24H44.24ZM52.34 44.51H57.68V47H52.34V44.51ZM57.68 47.3V49.97H55.11V47.3H57.68ZM54.92 52.74H52.34V50.22H54.92V52.74ZM54.92 49.97H52.34V47.3H54.92V49.97ZM60.5 52.71H55.11V50.22H60.5V52.71ZM60.5 49.94H57.87V47.3H60.5V49.94ZM60.5 47H57.87V44.51H60.5V47Z" fill="#1C74B4"/>
<path d="M100.86 37.24V61.8C100.86 62.8296 100.657 63.849 100.263 64.8002C99.8692 65.7514 99.2917 66.6157 98.5637 67.3437C97.8357 68.0717 96.9714 68.6492 96.0202 69.0432C95.069 69.4372 94.0495 69.64 93.02 69.64H61.22L72.38 37.24H100.86Z" fill="#0F5CA8"/>
<path d="M56.39 81.61C58.6268 81.61 60.44 79.7968 60.44 77.56C60.44 75.3233 58.6268 73.51 56.39 73.51C54.1533 73.51 52.34 75.3233 52.34 77.56C52.34 79.7968 54.1533 81.61 56.39 81.61Z" fill="#0F5CA8"/>
<path d="M88.71 81.61C90.9467 81.61 92.76 79.7968 92.76 77.56C92.76 75.3233 90.9467 73.51 88.71 73.51C86.4732 73.51 84.66 75.3233 84.66 77.56C84.66 79.7968 86.4732 81.61 88.71 81.61Z" fill="#0F5CA8"/>
<path d="M118 72.8362V22.4262H131.845V41.5962L147.181 22.4262H162.801L144.483 45.0042L164.079 72.8362H148.175L135.679 54.3052L131.845 58.2812V72.8362H118Z" fill="#0F5CA8"/>
<path d="M186.901 73.2622C182.877 73.2622 179.422 72.5995 176.535 71.2742C173.647 69.9488 171.281 68.1265 169.435 65.8072C167.636 63.4878 166.311 60.8372 165.459 57.8552C164.607 54.8258 164.181 51.6545 164.181 48.3412V22.4262H178.026V48.3412C178.026 49.9978 178.191 51.5835 178.523 53.0982C178.854 54.6128 179.375 55.9618 180.085 57.1452C180.795 58.3285 181.694 59.2752 182.783 59.9852C183.919 60.6478 185.291 60.9792 186.901 60.9792C188.557 60.9792 189.954 60.6478 191.09 59.9852C192.226 59.2752 193.125 58.3285 193.788 57.1452C194.498 55.9145 195.018 54.5418 195.35 53.0272C195.681 51.5125 195.847 49.9505 195.847 48.3412V22.4262H209.692V48.3412C209.692 51.8438 209.218 55.1098 208.272 58.1392C207.372 61.1685 206 63.8192 204.154 66.0912C202.308 68.3632 199.941 70.1382 197.054 71.4162C194.214 72.6468 190.829 73.2622 186.901 73.2622Z" fill="#0F5CA8"/>
<path d="M253.5 34.5001C249.5 34.5001 237.556 34.2832 232.707 34.2832C231.524 34.2832 230.553 34.4725 229.796 34.8512C229.039 35.2298 228.66 35.8688 228.66 36.7682C228.66 37.6202 229.039 38.3065 229.796 38.8272C230.553 39.3478 231.618 39.8212 232.991 40.2472C234.411 40.6732 236.091 41.1938 238.032 41.8092C241.156 42.7558 243.854 43.8445 246.126 45.0752C248.398 46.3058 250.149 47.8915 251.38 49.8322C252.611 51.7255 253.226 54.2578 253.226 57.4292C253.226 60.4585 252.682 63.0145 251.593 65.0972C250.504 67.1325 249.037 68.7655 247.191 69.9962C245.345 71.2268 243.286 72.1262 241.014 72.6942C238.742 73.2148 236.423 73.4752 234.056 73.4752C230.95 73.4752 215 73 213 73V60.5C218.682 60.5208 227.172 60.9792 234.269 60.9792C235.784 60.9792 236.825 60.7898 237.393 60.4112C238.008 59.9852 238.316 59.4408 238.316 58.7782C238.316 57.7842 237.795 57.0268 236.754 56.5062C235.713 55.9382 234.34 55.4175 232.636 54.9442C230.979 54.4235 229.133 53.8318 227.098 53.1692C224.163 52.1752 221.749 51.0628 219.856 49.8322C217.963 48.5542 216.566 47.0632 215.667 45.3592C214.768 43.6078 214.318 41.5015 214.318 39.0402C214.318 35.3008 215.194 32.1768 216.945 29.6682C218.696 27.1595 220.992 25.2662 223.832 23.9882C226.719 22.6628 229.82 22.0002 233.133 22.0002C237.52 22.0002 249 21.9098 253.5 22.0001V34.5001Z" fill="#0F5CA8"/>
<path d="M271.06 48.0572V72.8362H257.215V22.0002L268 22.0001L288.242 48.0572V22.4262H302.087V72.8362H291.082L271.06 48.0572Z" fill="#0F5CA8"/>
<path d="M320.257 22.4262H335.735L351.781 72.8362H337.723L334.67 62.9672H321.251L318.269 72.8362H304.14L320.257 22.4262ZM332.469 53.7372L327.996 35.9872L323.31 53.7372H332.469Z" fill="#0F5CA8"/>
<path d="M353.839 72.8362V22.4262H375.565C378.027 22.4262 380.299 22.9232 382.381 23.9172C384.464 24.9112 386.263 26.2602 387.777 27.9642C389.292 29.6208 390.452 31.4905 391.256 33.5732C392.108 35.6558 392.534 37.7622 392.534 39.8922C392.534 42.8742 391.824 45.6905 390.404 48.3412C389.032 50.9918 387.091 53.1692 384.582 54.8732C382.121 56.5298 379.234 57.3582 375.92 57.3582H367.684V72.8362H353.839ZM367.684 45.2882H374.997C375.565 45.2882 376.11 45.1225 376.63 44.7912C377.151 44.4598 377.577 43.8918 377.908 43.0872C378.287 42.2825 378.476 41.2175 378.476 39.8922C378.476 38.4722 378.263 37.3835 377.837 36.6262C377.459 35.8215 376.962 35.2772 376.346 34.9932C375.778 34.6618 375.21 34.4962 374.642 34.4962H367.684V45.2882Z" fill="#0F5CA8"/>
</svg>
