<svg width="176" height="49" viewBox="0 0 176 49" fill="none" xmlns="http://www.w3.org/2000/svg">
<rect y="0.606049" width="175.957" height="48.2669" rx="8" fill="#080909"/>
<path d="M24.5923 38.4689L24.5104 38.3901C24.1895 38.0489 24 37.519 24 36.8329V36.9944V12.4844C24 12.4822 24 12.4805 24 12.4788C24 12.4809 24 12.4826 24 12.4849V12.6468C24 11.9038 24.2209 11.3441 24.591 11.0086L38.2548 24.7392L24.5923 38.4689ZM24 12.4774C24 12.4164 24.0017 12.3571 24.0047 12.2987C24.0017 12.3566 24 12.4164 24 12.4774ZM24.0047 12.296C24.0047 12.2952 24.0047 12.2944 24.0051 12.2935C24.0047 12.2944 24.0047 12.2952 24.0047 12.296ZM24.0051 12.2883C24.0051 12.2878 24.0051 12.2874 24.0051 12.2869C24.0051 12.2874 24.0051 12.2878 24.0051 12.2883Z" fill="url(#paint0_linear_2925_1582)"/>
<path d="M42.8078 29.4806L42.9117 29.4213L48.3077 26.3403C48.8222 26.0464 49.165 25.6901 49.3361 25.3131C49.1655 25.6901 48.8225 26.0468 48.3077 26.3407L42.9117 29.4218L42.8078 29.4806ZM42.8091 29.3183L38.2539 24.7399L42.8087 20.1623L48.3077 23.3017C49.006 23.7005 49.3981 24.2144 49.4636 24.7394C49.4636 24.7399 49.4636 24.7408 49.4636 24.7415C49.3981 25.2654 49.006 25.7798 48.3077 26.1784L42.8091 29.3183Z" fill="url(#paint1_linear_2925_1582)"/>
<path d="M25.5646 38.9919C25.1829 38.9919 24.8499 38.8672 24.5902 38.6317L24.5906 38.6312C24.8503 38.8667 25.1838 38.9919 25.5655 38.9919C25.5986 38.9919 25.6322 38.991 25.6663 38.9893C25.6318 38.991 25.5977 38.9919 25.5646 38.9919ZM25.5651 38.8295C25.1834 38.8299 24.8503 38.7048 24.5906 38.4693V38.469L38.2531 24.7393L42.8083 29.3176L26.8006 38.4577C26.3577 38.71 25.938 38.8295 25.5651 38.8295ZM24.5868 38.6287C24.5626 38.6066 24.5389 38.5832 24.5156 38.559L24.5868 38.6287Z" fill="url(#paint2_linear_2925_1582)"/>
<path d="M38.2536 24.7394L24.5898 11.0088C24.8496 10.7737 25.1822 10.6491 25.5634 10.6491C25.9374 10.6491 26.3573 10.769 26.8011 11.0218L42.8084 20.1618L38.2536 24.7394ZM42.9114 20.0584L26.8011 10.86C26.3573 10.6071 25.9374 10.4872 25.5634 10.4872C25.5617 10.4872 25.5604 10.4872 25.5587 10.4872C25.5609 10.4872 25.5625 10.4872 25.5652 10.4872C25.9383 10.4872 26.3578 10.6066 26.8011 10.8595L42.9114 20.0584Z" fill="url(#paint3_linear_2925_1582)"/>
<path d="M65.4949 13.4598C65.4949 14.3883 65.2213 15.1277 64.6733 15.6793C64.0508 16.3351 63.2396 16.6633 62.2423 16.6633C61.2873 16.6633 60.4752 16.3308 59.8075 15.665C59.1385 14.9996 58.8047 14.1745 58.8047 13.19C58.8047 12.2051 59.1385 11.3805 59.8075 10.7147C60.4752 10.0493 61.2873 9.71635 62.2423 9.71635C62.7162 9.71635 63.1699 9.80944 63.6007 9.99518C64.0314 10.1814 64.3769 10.4285 64.6354 10.738L64.0538 11.3229C63.6158 10.7969 63.0126 10.5341 62.2423 10.5341C61.5458 10.5341 60.9435 10.78 60.4352 11.2722C59.9268 11.7649 59.6727 12.4038 59.6727 13.19C59.6727 13.9762 59.9268 14.6151 60.4352 15.1079C60.9435 15.6 61.5458 15.8459 62.2423 15.8459C62.9812 15.8459 63.5972 15.5987 64.0904 15.1035C64.4106 14.7809 64.5957 14.3325 64.6452 13.7567H62.2423V12.958H65.4488C65.4798 13.1316 65.4949 13.2983 65.4949 13.4598Z" fill="white"/>
<path d="M65.4958 13.4602H65.3855C65.3846 14.3675 65.1209 15.0722 64.5962 15.6013L64.595 15.6022L64.5945 15.6031C63.9919 16.2363 63.2172 16.5515 62.2432 16.5529C61.3136 16.5515 60.5356 16.2329 59.8859 15.587C59.2377 14.9398 58.9171 14.1497 58.9159 13.1904C58.9171 12.2307 59.2377 11.4411 59.8859 10.7943C60.5356 10.148 61.3136 9.82891 62.2432 9.82758C62.7029 9.82758 63.1406 9.91768 63.558 10.0973C63.9759 10.2783 64.3059 10.5155 64.5519 10.8099L64.6363 10.7384L64.5584 10.6601L63.9767 11.2454L64.0547 11.3233L64.1396 11.2523C63.6812 10.7003 63.0377 10.422 62.2432 10.4237C61.5209 10.4228 60.8854 10.6821 60.3598 11.193C59.8291 11.7056 59.5625 12.3804 59.5633 13.1904C59.5625 14.0005 59.8291 14.6753 60.3598 15.1878C60.8854 15.6987 61.5209 15.9581 62.2432 15.9572C63.0066 15.9585 63.6571 15.6983 64.1693 15.1823C64.5114 14.8376 64.7053 14.3602 64.7561 13.7666L64.7664 13.6463H62.3535V13.0692H65.4497V12.9584L65.341 12.9779C65.3713 13.1459 65.3855 13.3056 65.3855 13.4602H65.4958H65.6061C65.6061 13.2917 65.5905 13.1186 65.5582 12.9385L65.5419 12.8475H62.1329V13.7571V13.8679H64.6462V13.7571L64.5363 13.7476C64.4877 14.3052 64.311 14.7251 64.0134 15.0256C63.5395 15.5 62.9579 15.7342 62.2432 15.7355C61.5725 15.7346 61.0034 15.5026 60.5128 15.0286C60.0269 14.5562 59.7851 13.9532 59.7839 13.1904C59.7851 12.4276 60.0269 11.8246 60.5128 11.3523C61.0034 10.8783 61.5725 10.6462 62.2432 10.6454C62.9889 10.6471 63.552 10.8947 63.9703 11.3947L64.0479 11.4874L64.7143 10.8168L64.7858 10.745L64.7207 10.6674C64.4497 10.3428 64.0888 10.0851 63.645 9.89385C63.2005 9.70201 62.7313 9.60593 62.2432 9.60593C61.2628 9.60504 60.4167 9.95137 59.7304 10.6367C59.0416 11.3207 58.6944 12.1805 58.6953 13.1904C58.6944 14.1999 59.0416 15.0602 59.7309 15.7446C60.4167 16.4295 61.2628 16.7754 62.2432 16.7745C63.2642 16.7754 64.1112 16.4346 64.7539 15.7562L64.6742 15.6797L64.7521 15.758C65.3234 15.1844 65.6068 14.4095 65.6061 13.4602H65.4958Z" fill="white"/>
<path d="M70.5757 10.6817H67.5624V12.79H70.2799V13.589H67.5624V15.6974H70.5757V16.5143H66.7129V9.86477H70.5757V10.6817Z" fill="white"/>
<path d="M70.5786 10.6822V10.5713H67.455V12.9013H70.1725V13.4784L67.455 13.4787V15.8087H70.4683V16.4039H66.826V9.9761H70.4683V10.6822H70.5786V10.5713V10.6822H70.6889V9.86528V9.75445H66.6055V16.6256H70.6889V15.6979V15.587H67.6755V13.7004H70.393V12.7905V12.6797H67.6755V10.793H70.6889V10.6822H70.5786Z" fill="white"/>
<path d="M74.1638 16.5143H73.313V10.6817H71.4648V9.86477H76.0119V10.6817H74.1638V16.5143Z" fill="white"/>
<path d="M74.1647 16.5148V16.4039H73.4241V10.5713H71.576V9.9761H75.9025V10.5713H74.0544V16.5148H74.1647V16.4039V16.5148H74.275V10.793H76.1231V9.86528V9.75445H71.3555V10.6822V10.793H73.2036V16.6256H74.1647H74.275V16.5148H74.1647Z" fill="white"/>
<path d="M79.3027 16.5143V9.86477H80.1527V16.5143H79.3027Z" fill="white"/>
<path d="M79.3017 16.5148H79.412V9.9761H80.0413V16.4039H79.3017V16.5148H79.412H79.3017V16.6256H80.1516H80.2619V9.75445H79.3017H79.1914V16.6256H79.3017V16.5148Z" fill="white"/>
<path d="M83.9215 16.5143H83.0707V10.6817H81.2227V9.86477H85.7696V10.6817H83.9215V16.5143Z" fill="white"/>
<path d="M83.9224 16.5147V16.4039H83.1818V10.5713H81.3338V9.9761H85.6602V10.5713H83.8121V16.5147H83.9224V16.4039V16.5147H84.0327V10.793H85.8808V9.86527V9.75445H81.1133V10.6822V10.793H82.9613V16.6256H83.9224H84.0327V16.5147H83.9224Z" fill="white"/>
<path d="M90.1552 15.0987C90.645 15.5969 91.2443 15.8458 91.953 15.8458C92.6616 15.8458 93.2612 15.5969 93.7502 15.0987C94.2404 14.6004 94.486 13.9635 94.486 13.1899C94.486 12.4164 94.2404 11.7795 93.7502 11.2812C93.2612 10.7829 92.6616 10.534 91.953 10.534C91.2443 10.534 90.645 10.7829 90.1552 11.2812C89.6663 11.7795 89.4208 12.4164 89.4208 13.1899C89.4208 13.9635 89.6663 14.6004 90.1552 15.0987ZM94.3792 15.6553C93.7286 16.3276 92.9196 16.6632 91.953 16.6632C90.9853 16.6632 90.1767 16.3276 89.5276 15.6553C88.8766 14.9839 88.5527 14.1619 88.5527 13.1899C88.5527 12.218 88.8766 11.3959 89.5276 10.7245C90.1767 10.0522 90.9853 9.71625 91.953 9.71625C92.9145 9.71625 93.7213 10.0539 94.3749 10.7289C95.0275 11.4038 95.3541 12.2241 95.3541 13.1899C95.3541 14.1619 95.0283 14.9839 94.3792 15.6553Z" fill="white"/>
<path d="M90.1562 15.0993L90.0777 15.1772C90.5857 15.6954 91.2194 15.9586 91.9539 15.9573C92.6879 15.9586 93.3225 15.6954 93.8296 15.1772C94.3408 14.6585 94.598 13.9875 94.5972 13.1906C94.598 12.3936 94.3408 11.7226 93.8296 11.2039C93.3225 10.6857 92.6879 10.4225 91.9539 10.4238C91.2194 10.4225 90.5857 10.6857 90.0777 11.2039C89.5677 11.7226 89.3101 12.3936 89.3114 13.1906C89.3101 13.9875 89.5677 14.6585 90.0777 15.1772L90.1562 15.0993L90.2346 15.0214C89.7668 14.543 89.5328 13.9412 89.532 13.1906C89.5328 12.4399 89.7668 11.8382 90.2346 11.3597C90.7067 10.8814 91.2706 10.6468 91.9539 10.6455C92.6366 10.6468 93.2018 10.8814 93.6727 11.3597C94.1414 11.8382 94.3754 12.4399 94.3762 13.1906C94.3754 13.9412 94.1414 14.543 93.6727 15.0214C93.2018 15.4997 92.6366 15.7343 91.9539 15.7356C91.2706 15.7343 90.7067 15.4997 90.2346 15.0214L90.1562 15.0993ZM94.3801 15.656L94.3012 15.5789C93.6689 16.23 92.8956 16.5516 91.9539 16.553C91.0117 16.5516 90.2384 16.23 89.6073 15.5789L89.6043 15.5755L89.6073 15.5789C88.9762 14.9256 88.6648 14.1378 88.6639 13.1906C88.6648 12.2433 88.9762 11.4555 89.6073 10.8022C90.2384 10.1511 91.0117 9.82903 91.9539 9.8277C92.8895 9.82903 93.6611 10.1524 94.2969 10.8069C94.9302 11.4632 95.2434 12.2499 95.2447 13.1906C95.2434 14.1378 94.9311 14.9256 94.3012 15.5789L94.3801 15.656L94.4594 15.733C95.1279 15.043 95.466 14.1871 95.4653 13.1906C95.466 12.1997 95.1266 11.3455 94.455 10.6525C93.783 9.9567 92.9412 9.60483 91.9539 9.60605C90.9613 9.60483 90.117 9.95503 89.4492 10.6481V10.6477C88.7794 11.3381 88.4425 12.194 88.4434 13.1906C88.4425 14.1871 88.7794 15.043 89.4492 15.7334L89.4522 15.7365L89.4492 15.733C90.117 16.4261 90.9613 16.7755 91.9539 16.7746C92.946 16.7755 93.7903 16.4261 94.4594 15.733L94.3801 15.656Z" fill="white"/>
<path d="M96.5469 16.5142V9.86473H97.5817L100.797 15.0376H100.834L100.797 13.7561V9.86473H101.648V16.5142H100.761L97.3964 11.0907H97.3598L97.3964 12.3726V16.5142H96.5469Z" fill="white"/>
<path d="M96.5478 16.5148H96.6581V9.9761H97.5213L100.737 15.149H100.835H100.948L100.909 13.755V9.9761H101.539V16.4039H100.823L97.4585 10.9804H97.3607H97.2474L97.287 12.3749V16.4039H96.5478V16.5148H96.6581H96.5478V16.6256H97.3973H97.5076V12.3714L97.471 11.0882L97.3607 11.0912V11.202H97.3973V11.0912L97.3038 11.1502L100.701 16.6256H101.649H101.76V9.75445H100.798H100.688V13.758L100.725 15.0411L100.835 15.0381V14.9273H100.798V15.0381L100.892 14.9793L97.6437 9.75445H96.5478H96.4375V16.6256H96.5478V16.5148Z" fill="white"/>
<path d="M131.133 35.3555H133.191V21.5011H131.133V35.3555ZM149.668 26.4917L147.309 32.4983H147.238L144.79 26.4917H142.573L146.245 34.887L144.151 39.5568H146.299L151.956 26.4917H149.668ZM137.998 33.7819C137.323 33.7819 136.383 33.4433 136.383 32.6053C136.383 31.5359 137.554 31.126 138.565 31.126C139.47 31.126 139.895 31.322 140.445 31.5897C140.285 32.8728 139.185 33.7819 137.998 33.7819ZM138.246 26.1886C136.756 26.1886 135.213 26.8484 134.575 28.3099L136.401 29.0762C136.791 28.3099 137.518 28.0601 138.281 28.0601C139.345 28.0601 140.427 28.7021 140.445 29.8428V29.9853C140.072 29.7714 139.275 29.4506 138.299 29.4506C136.33 29.4506 134.325 30.5376 134.325 32.5697C134.325 34.4235 135.94 35.6178 137.748 35.6178C139.133 35.6178 139.895 34.994 140.374 34.2633H140.445V35.3325H142.431V30.0207C142.431 27.5614 140.605 26.1886 138.246 26.1886ZM125.528 28.1783H122.601V23.4293H125.528C127.067 23.4293 127.94 24.7093 127.94 25.8037C127.94 26.8774 127.067 28.1783 125.528 28.1783ZM125.475 21.5011H120.544V35.3555H122.601V30.1065H125.475C127.756 30.1065 129.998 28.4471 129.998 25.8037C129.998 23.1605 127.756 21.5011 125.475 21.5011ZM98.5872 33.7844C97.1655 33.7844 95.9752 32.5883 95.9752 30.9454C95.9752 29.2853 97.1655 28.071 98.5872 28.071C99.9907 28.071 101.092 29.2853 101.092 30.9454C101.092 32.5883 99.9907 33.7844 98.5872 33.7844ZM100.95 27.2675H100.879C100.417 26.7142 99.5284 26.2142 98.4093 26.2142C96.064 26.2142 93.9144 28.2852 93.9144 30.9454C93.9144 33.5879 96.064 35.6412 98.4093 35.6412C99.5284 35.6412 100.417 35.1412 100.879 34.5702H100.95V35.2485C100.95 37.0521 99.9907 38.0162 98.445 38.0162C97.1836 38.0162 96.4018 37.1053 96.0817 36.3377L94.2875 37.0876C94.8027 38.3373 96.1709 39.8729 98.445 39.8729C100.861 39.8729 102.905 38.4443 102.905 34.9628V26.4999H100.95V27.2675ZM104.326 35.3555H106.387V21.5006H104.326V35.3555ZM109.425 30.7849C109.372 28.9636 110.829 28.0354 111.877 28.0354C112.695 28.0354 113.387 28.4458 113.618 29.0355L109.425 30.7849ZM115.821 29.2138C115.431 28.1601 114.24 26.2142 111.806 26.2142C109.389 26.2142 107.382 28.1246 107.382 30.9277C107.382 33.5702 109.372 35.6412 112.036 35.6412C114.187 35.6412 115.431 34.3199 115.946 33.5524L114.347 32.4809C113.814 33.2667 113.085 33.7844 112.036 33.7844C110.988 33.7844 110.242 33.3022 109.762 32.3562L116.034 29.7493L115.821 29.2138ZM65.854 27.6605V29.6601H70.6155C70.4733 30.7849 70.1002 31.6061 69.5316 32.1775C68.8389 32.874 67.7551 33.6416 65.854 33.6416C62.9224 33.6416 60.6306 31.2671 60.6306 28.3211C60.6306 25.3752 62.9224 23.0003 65.854 23.0003C67.4354 23.0003 68.5899 23.6254 69.4428 24.4288L70.8464 23.0185C69.6561 21.8756 68.0747 21.0007 65.854 21.0007C61.8385 21.0007 58.4629 24.286 58.4629 28.3211C58.4629 32.3562 61.8385 35.6412 65.854 35.6412C68.0217 35.6412 69.6561 34.9274 70.9352 33.5879C72.25 32.2667 72.6588 30.4099 72.6588 28.9104C72.6588 28.4458 72.6234 28.0177 72.5519 27.6605H65.854ZM78.0721 33.7844C76.6505 33.7844 75.4244 32.606 75.4244 30.9277C75.4244 29.2315 76.6505 28.071 78.0721 28.071C79.4932 28.071 80.7192 29.2315 80.7192 30.9277C80.7192 32.606 79.4932 33.7844 78.0721 33.7844ZM78.0721 26.2142C75.4778 26.2142 73.3635 28.196 73.3635 30.9277C73.3635 33.6416 75.4778 35.6412 78.0721 35.6412C80.6658 35.6412 82.7802 33.6416 82.7802 30.9277C82.7802 28.196 80.6658 26.2142 78.0721 26.2142ZM88.3429 33.7844C86.9218 33.7844 85.6957 32.606 85.6957 30.9277C85.6957 29.2315 86.9218 28.071 88.3429 28.071C89.7641 28.071 90.9901 29.2315 90.9901 30.9277C90.9901 32.606 89.7641 33.7844 88.3429 33.7844ZM88.3429 26.2142C85.7488 26.2142 83.6349 28.196 83.6349 30.9277C83.6349 33.6416 85.7488 35.6412 88.3429 35.6412C90.9368 35.6412 93.0511 33.6416 93.0511 30.9277C93.0511 28.196 90.9368 26.2142 88.3429 26.2142Z" fill="white"/>
<defs>
<linearGradient id="paint0_linear_2925_1582" x1="37.0432" y1="12.2259" x2="18.4443" y2="30.7338" gradientUnits="userSpaceOnUse">
<stop stop-color="#00A0FF"/>
<stop offset="0.00657445" stop-color="#00A1FF"/>
<stop offset="0.2601" stop-color="#00BEFF"/>
<stop offset="0.5122" stop-color="#00D2FF"/>
<stop offset="0.7604" stop-color="#00DFFF"/>
<stop offset="1" stop-color="#00E3FF"/>
</linearGradient>
<linearGradient id="paint1_linear_2925_1582" x1="50.3144" y1="24.7406" x2="23.6294" y2="24.7406" gradientUnits="userSpaceOnUse">
<stop stop-color="#FFE000"/>
<stop offset="0.4087" stop-color="#FFBD00"/>
<stop offset="0.7754" stop-color="#FFA500"/>
<stop offset="1" stop-color="#FF9C00"/>
</linearGradient>
<linearGradient id="paint2_linear_2925_1582" x1="40.38" y1="27.283" x2="15.1585" y2="52.3811" gradientUnits="userSpaceOnUse">
<stop stop-color="#FF3A44"/>
<stop offset="1" stop-color="#C31162"/>
</linearGradient>
<linearGradient id="paint3_linear_2925_1582" x1="21.0483" y1="2.76888" x2="32.3108" y2="13.9762" gradientUnits="userSpaceOnUse">
<stop stop-color="#32A071"/>
<stop offset="0.0685" stop-color="#2DA771"/>
<stop offset="0.4762" stop-color="#15CF74"/>
<stop offset="0.8009" stop-color="#06E775"/>
<stop offset="1" stop-color="#00F076"/>
</linearGradient>
</defs>
</svg>
