<svg width="62" height="61" viewBox="0 0 62 61" fill="none" xmlns="http://www.w3.org/2000/svg">
<circle cx="21.5477" cy="35.9198" r="17.9208" fill="#FFEDDD"/>
<path d="M34.7129 49.861C33.932 49.861 33.2979 49.2265 33.2979 48.446V39.1496H28.662V48.446C28.662 49.2024 28.0275 49.8369 27.2469 49.8369C26.4661 49.8369 25.856 49.2269 25.8319 48.446V39.052C25.8319 37.5637 27.0519 36.3438 28.5401 36.3438H33.3469C34.8352 36.3438 36.0551 37.5637 36.0551 39.052V48.446C36.1283 49.251 35.4938 49.861 34.713 49.861H34.7129Z" fill="#08B059"/>
<path d="M17.4865 50.3736C16.7056 50.3736 16.0715 49.7391 16.0715 48.9586V34.6846H13.1433C12.9969 34.6846 12.8505 34.6601 12.7042 34.6114C12.4114 34.5137 11.6306 34.1478 10.996 32.8791C10.386 31.6591 10.6787 30.5368 11.1179 29.9509C11.1665 29.9022 11.2155 29.8532 11.2642 29.8045L30.0278 11.0409C30.2961 10.7727 30.6378 10.626 31.0282 10.626C31.3942 10.626 31.7601 10.7724 32.0286 11.0409L37.3722 16.36C37.9091 16.8969 37.9336 17.7996 37.3722 18.3364C37.104 18.6047 36.7622 18.7514 36.3718 18.7514C36.0059 18.7514 35.64 18.605 35.3714 18.3364L31.0282 13.9932L13.1674 31.854H17.4861C18.267 31.854 18.9012 32.4885 18.9012 33.2691V47.5431H43.2036V33.2691C43.2036 32.4882 43.8381 31.854 44.6186 31.854H48.2299L41.6176 25.2659C41.3493 24.9976 41.2026 24.6559 41.2026 24.2655V18.5804C41.2026 17.7996 41.8371 17.1654 42.6177 17.1654C43.3985 17.1654 44.0327 17.7999 44.0327 18.5804L44.033 23.729L50.7185 30.3903C50.7917 30.4635 50.8649 30.5612 50.9381 30.6585C51.06 30.8781 51.67 32.0004 51.1331 33.1717C50.5963 34.3673 49.3276 34.6358 49.0835 34.66C49.0104 34.6845 48.9372 34.6845 48.8395 34.6845H46.0091V48.9585C46.0091 49.7394 45.3746 50.3735 44.594 50.3735L17.4865 50.3736Z" fill="#2FA0FF"/>
</svg>
